<?xml version="1.0" encoding="UTF-8" standalone="no"?> <svg xmlns:dc="http://purl.org/dc/elements/1.1/" xmlns:cc="http://creativecommons.org/ns#" xmlns:rdf="http://www.w3.org/1999/02/22-rdf-syntax-ns#" xmlns:svg="http://www.w3.org/2000/svg" xmlns="http://www.w3.org/2000/svg" xmlns:sodipodi="http://sodipodi.sourceforge.net/DTD/sodipodi-0.dtd" xmlns:inkscape="http://www.inkscape.org/namespaces/inkscape" width="79.0788mm" height="77.5548mm" viewBox="0 0 934 916" id="svg3" sodipodi:docname="logokiteboardcenter.svg" inkscape:version="0.92.2 (5c3e80d, 2017-08-06)"><metadata id="metadata9"></metadata><defs id="defs7"></defs><path id="Selection" d="M 538.00,0.21 C 538.00,0.21 519.00,2.28 519.00,2.28 498.39,4.85 475.61,9.56 456.00,16.34 370.55,45.90 286.87,118.83 279.91,214.00 279.91,214.00 279.00,224.00 279.00,224.00 278.68,251.67 284.94,282.72 296.30,308.00 308.67,335.50 320.83,354.52 341.17,377.00 361.41,399.38 390.56,419.79 417.00,434.30 473.34,465.24 539.60,482.31 603.00,491.13 626.23,494.36 649.59,497.02 673.00,498.04 673.00,498.04 684.00,499.04 684.00,499.04 684.00,499.04 696.00,499.04 696.00,499.04 696.00,499.04 708.00,500.00 708.00,500.00 708.00,500.00 764.00,500.00 764.00,500.00 767.06,500.00 771.16,500.18 773.89,498.69 778.58,496.12 779.41,488.30 775.57,484.65 773.33,482.52 768.04,481.29 765.00,480.42 765.00,480.42 746.00,474.19 746.00,474.19 723.21,465.39 706.11,456.82 685.00,444.58 619.06,406.31 551.48,344.37 513.43,278.00 501.82,257.75 492.29,235.76 486.88,213.00 475.75,166.09 481.42,109.21 512.92,71.00 520.07,62.34 525.96,56.79 535.00,50.15 545.55,42.42 559.59,35.19 572.00,31.00 585.32,26.51 607.99,22.17 622.00,22.00 624.88,21.97 633.70,22.34 635.85,21.40 639.05,20.01 639.62,16.03 637.40,13.51 634.66,10.39 618.68,7.20 614.00,6.12 592.34,1.13 577.06,0.00 555.00,0.21 555.00,0.21 538.00,0.21 538.00,0.21 Z M 534.00,26.00 C 534.00,26.00 511.00,42.00 511.00,42.00 496.55,53.53 483.94,68.62 475.32,85.00 461.27,111.70 456.65,145.17 457.00,175.00 457.00,175.00 457.91,185.00 457.91,185.00 462.67,253.06 500.67,314.81 545.92,364.00 545.92,364.00 571.00,389.91 571.00,389.91 586.31,404.18 602.26,417.80 619.00,430.37 639.96,446.12 661.80,460.74 685.00,473.00 679.11,475.34 661.30,472.39 654.00,472.04 625.42,470.66 590.23,464.65 562.00,459.00 469.97,440.60 368.65,398.57 324.37,310.00 315.13,291.52 304.25,259.65 304.00,239.00 303.74,216.05 303.93,202.28 311.35,180.00 334.89,109.40 408.67,53.66 479.00,35.12 495.14,30.86 517.43,26.05 534.00,26.00 Z M 630.00,45.42 C 630.00,45.42 620.00,46.28 620.00,46.28 599.75,48.72 580.26,54.12 562.00,63.25 557.50,65.50 547.36,70.61 544.31,74.18 541.36,77.64 541.43,82.54 546.06,84.40 547.82,85.11 551.05,85.00 553.00,85.00 553.00,85.00 559.00,85.00 559.00,85.00 575.17,85.19 599.14,90.07 614.00,96.43 623.27,100.39 632.57,105.20 640.00,112.09 648.39,119.87 654.82,130.65 667.00,131.25 684.21,132.11 699.65,120.84 710.96,109.00 717.73,101.91 723.74,93.11 723.99,83.00 724.33,68.59 714.45,60.51 702.00,55.23 683.85,47.54 649.57,43.04 630.00,45.42 Z M 598.00,72.00 C 602.82,69.14 611.37,67.87 617.00,66.80 634.40,63.52 658.78,63.95 676.00,68.13 683.51,69.95 694.91,72.14 699.40,79.04 702.36,83.60 699.26,88.22 696.51,92.00 691.96,98.26 677.47,112.02 669.00,110.59 665.56,110.02 662.39,106.37 660.00,104.00 654.63,98.67 652.42,96.00 646.00,91.67 628.84,80.09 617.03,77.52 598.00,72.00 Z M 238.11,289.02 C 233.01,293.10 230.98,301.15 228.22,307.00 228.22,307.00 209.58,342.00 209.58,342.00 191.20,373.67 169.00,401.30 143.00,427.00 133.66,436.22 123.30,444.66 113.00,452.79 109.61,455.46 103.66,458.88 104.76,463.96 105.76,468.60 110.02,469.17 114.00,468.71 114.00,468.71 145.00,465.00 145.00,465.00 145.00,465.00 168.00,465.00 168.00,465.00 188.67,465.03 228.69,473.59 250.00,478.00 289.61,486.19 329.57,493.28 370.00,495.04 370.00,495.04 381.00,496.00 381.00,496.00 381.00,496.00 411.00,496.00 411.00,496.00 415.72,495.99 421.79,496.57 421.79,490.00 421.79,488.40 421.36,486.89 420.26,485.70 418.10,483.37 403.91,479.38 400.00,477.95 385.80,472.74 372.09,466.26 359.00,458.72 317.99,435.07 287.84,402.51 267.26,360.00 261.01,347.10 255.20,329.06 252.21,315.00 252.21,315.00 248.57,293.02 248.57,293.02 246.97,287.63 242.66,287.45 238.11,289.02 Z M 236.00,343.00 C 238.54,354.13 245.83,368.82 251.22,379.00 266.11,407.10 287.25,432.10 312.00,452.00 320.84,459.11 332.85,468.11 343.00,473.00 338.74,474.42 330.60,472.36 326.00,471.59 326.00,471.59 289.00,464.40 289.00,464.40 246.02,455.75 203.99,445.02 160.00,443.00 160.00,443.00 173.83,428.00 173.83,428.00 173.83,428.00 200.12,397.00 200.12,397.00 200.12,397.00 224.95,361.00 224.95,361.00 224.95,361.00 236.00,343.00 236.00,343.00 Z M 0.00,519.00 C 0.00,519.00 0.00,756.00 0.00,756.00 0.00,756.00 32.00,753.00 32.00,753.00 32.00,753.00 32.00,699.00 32.00,699.00 32.00,699.00 32.53,691.00 32.53,691.00 32.53,691.00 45.00,661.00 45.00,661.00 45.00,661.00 62.42,726.00 62.42,726.00 62.42,726.00 66.85,742.00 66.85,742.00 66.85,742.00 69.72,749.00 69.72,749.00 69.72,749.00 78.00,749.00 78.00,749.00 78.00,749.00 102.00,747.00 102.00,747.00 102.00,747.00 93.42,717.00 93.42,717.00 93.42,717.00 76.58,658.00 76.58,658.00 76.58,658.00 69.42,633.00 69.42,633.00 69.42,633.00 66.50,620.00 66.50,620.00 66.50,620.00 76.40,592.00 76.40,592.00 76.40,592.00 90.60,555.00 90.60,555.00 90.60,555.00 101.00,527.00 101.00,527.00 101.00,527.00 79.00,525.97 79.00,525.97 79.00,525.97 70.50,525.97 70.50,525.97 70.50,525.97 66.60,533.00 66.60,533.00 66.60,533.00 59.40,551.00 59.40,551.00 59.40,551.00 42.58,595.00 42.58,595.00 42.58,595.00 33.00,625.00 33.00,625.00 33.00,625.00 32.00,591.00 32.00,591.00 32.00,591.00 32.00,522.00 32.00,522.00 32.00,522.00 0.00,519.00 0.00,519.00 Z M 840.00,527.00 C 840.00,527.00 840.00,748.00 840.00,748.00 840.00,748.00 851.00,748.91 851.00,748.91 851.00,748.91 882.00,751.09 882.00,751.09 882.00,751.09 890.00,751.92 890.00,751.92 899.57,751.92 910.66,748.85 917.83,742.38 930.21,731.22 933.81,709.98 934.00,694.00 934.00,694.00 934.00,583.00 934.00,583.00 933.97,566.64 930.74,543.74 917.91,532.33 910.25,525.51 898.07,522.62 888.00,523.04 888.00,523.04 880.00,523.91 880.00,523.91 880.00,523.91 840.00,527.00 840.00,527.00 Z M 119.00,529.00 C 119.00,529.00 119.00,746.00 119.00,746.00 119.00,746.00 151.00,744.00 151.00,744.00 151.00,744.00 151.00,531.00 151.00,531.00 151.00,531.00 119.00,529.00 119.00,529.00 Z M 167.00,532.00 C 167.00,532.00 167.00,563.00 167.00,563.00 167.00,563.00 196.00,564.00 196.00,564.00 196.00,564.00 196.00,741.00 196.00,741.00 196.00,741.00 228.00,740.00 228.00,740.00 228.00,740.00 228.00,565.00 228.00,565.00 228.00,565.00 256.00,566.00 256.00,566.00 256.00,566.00 256.00,536.00 256.00,536.00 256.00,536.00 226.00,535.00 226.00,535.00 226.00,535.00 208.00,534.00 208.00,534.00 208.00,534.00 193.00,533.00 193.00,533.00 193.00,533.00 167.00,532.00 167.00,532.00 Z M 720.00,534.00 C 720.00,534.00 720.00,741.00 720.00,741.00 720.00,741.00 752.00,742.00 752.00,742.00 752.00,742.00 752.00,654.00 752.00,654.00 757.70,654.00 763.70,653.53 769.00,656.05 777.06,659.89 779.89,666.73 781.38,675.00 781.38,675.00 782.00,710.00 782.00,710.00 782.00,710.00 782.92,722.00 782.92,722.00 783.28,726.58 784.19,739.14 786.93,742.49 789.34,745.43 794.57,744.96 798.00,745.00 798.00,745.00 821.00,747.00 821.00,747.00 819.10,734.73 814.03,728.74 814.00,707.00 813.98,691.79 815.29,671.15 809.94,657.00 806.99,649.23 802.19,641.79 794.00,639.00 800.32,634.73 805.09,631.00 808.62,624.00 812.06,617.19 813.91,604.66 814.00,597.00 814.26,574.45 815.56,542.56 789.00,534.03 784.38,532.54 781.84,532.06 777.00,532.00 777.00,532.00 761.00,532.00 761.00,532.00 761.00,532.00 745.00,533.00 745.00,533.00 745.00,533.00 720.00,534.00 720.00,534.00 Z M 273.00,537.04 C 273.00,537.04 273.00,738.00 273.00,738.00 273.00,738.00 294.00,737.00 294.00,737.00 294.00,737.00 310.00,737.00 310.00,737.00 310.00,737.00 325.00,736.00 325.00,736.00 325.00,736.00 348.00,736.00 348.00,736.00 348.00,736.00 348.00,707.00 348.00,707.00 339.13,707.00 311.76,706.08 305.00,708.00 305.00,708.00 305.00,648.00 305.00,648.00 305.00,648.00 341.00,648.00 341.00,648.00 341.00,648.00 341.00,619.00 341.00,619.00 341.00,619.00 305.00,619.00 305.00,619.00 305.00,619.00 305.00,567.00 305.00,567.00 305.00,567.00 324.00,568.00 324.00,568.00 324.00,568.00 346.00,568.00 346.00,568.00 346.00,568.00 346.00,539.00 346.00,539.00 346.00,539.00 300.00,538.00 300.00,538.00 300.00,538.00 288.00,537.04 288.00,537.04 288.00,537.04 273.00,537.04 273.00,537.04 Z M 525.00,537.43 C 498.27,541.82 485.04,559.32 485.00,586.00 485.00,586.00 485.00,691.00 485.00,691.00 485.06,696.14 486.03,701.07 487.43,706.00 494.99,732.70 518.85,740.66 544.00,736.87 568.19,733.22 579.96,713.00 580.00,690.00 580.00,690.00 580.00,585.00 580.00,585.00 579.98,571.82 575.91,557.37 565.96,548.18 555.23,538.28 539.07,535.69 525.00,537.43 Z M 627.00,537.96 C 627.00,537.96 618.41,593.00 618.41,593.00 618.41,593.00 601.92,692.00 601.92,692.00 601.92,692.00 595.00,736.06 595.00,736.06 595.00,736.06 615.00,736.06 615.00,736.06 617.29,736.39 621.33,737.52 623.26,736.06 624.96,734.66 625.10,731.03 625.42,729.00 625.91,725.90 627.80,712.10 629.02,710.31 630.64,707.94 633.44,708.05 636.00,708.00 636.00,708.00 652.00,708.00 652.00,708.00 654.56,708.00 658.54,707.87 660.87,708.89 665.89,711.09 666.53,724.81 667.41,730.00 667.77,732.07 668.06,735.61 669.74,737.02 671.82,738.78 679.22,738.99 682.00,739.00 690.33,739.04 692.53,738.88 701.00,740.00 701.00,740.00 691.41,679.00 691.41,679.00 691.41,679.00 676.25,585.00 676.25,585.00 676.25,585.00 670.42,550.00 670.42,550.00 668.68,538.76 669.77,537.15 662.00,537.00 662.00,537.00 649.00,537.00 649.00,537.00 649.00,537.00 639.00,537.96 639.00,537.96 639.00,537.96 627.00,537.96 627.00,537.96 Z M 370.00,540.00 C 370.00,540.00 370.00,735.00 370.00,735.00 370.00,735.00 419.00,734.17 419.00,734.17 431.57,732.97 439.13,733.51 449.99,725.10 455.58,720.76 458.95,715.63 461.30,709.00 464.69,699.44 464.00,692.83 464.00,683.00 464.00,664.89 465.80,644.02 446.00,635.00 451.33,631.67 455.06,628.76 458.01,623.00 461.20,616.76 461.47,611.65 462.28,605.00 464.71,585.29 464.04,557.97 445.00,546.48 437.38,541.88 424.84,540.11 416.00,540.00 416.00,540.00 370.00,540.00 370.00,540.00 Z M 872.00,717.00 C 872.00,717.00 872.00,653.00 872.00,653.00 872.00,653.00 872.00,610.00 872.00,610.00 872.00,610.00 872.00,564.00 872.00,564.00 872.12,557.40 873.64,557.09 880.00,557.00 883.31,556.96 887.90,556.80 891.00,557.85 900.15,560.96 901.90,571.53 902.00,580.00 902.00,580.00 902.00,695.00 902.00,695.00 901.83,708.93 897.58,718.56 882.00,717.96 882.00,717.96 872.00,717.00 872.00,717.00 Z M 752.00,623.00 C 752.00,623.00 752.00,563.00 752.00,563.00 759.34,563.00 771.09,561.57 776.79,566.56 781.44,570.63 781.97,577.23 782.00,583.00 782.04,592.66 784.12,611.74 776.67,618.44 771.09,623.47 759.16,623.00 752.00,623.00 Z M 529.00,566.34 C 541.71,564.90 547.85,571.57 548.00,584.00 548.00,584.00 548.00,689.00 548.00,689.00 547.99,694.29 548.10,698.56 544.58,702.96 537.61,711.68 524.70,710.75 519.09,701.00 516.86,697.13 517.01,693.28 517.00,689.00 517.00,689.00 517.00,585.00 517.00,585.00 517.04,575.73 519.22,568.98 529.00,566.34 Z M 402.00,619.00 C 402.00,619.00 402.00,569.00 402.00,569.00 409.57,569.00 420.79,567.58 426.79,572.64 433.66,578.42 432.04,591.74 432.00,600.00 431.99,602.72 432.02,605.37 431.20,608.00 430.24,611.04 428.47,613.60 425.96,615.57 420.14,620.15 409.19,619.00 402.00,619.00 Z M 647.00,583.00 C 647.01,595.12 652.43,634.57 654.59,648.00 654.59,648.00 659.00,680.00 659.00,680.00 659.00,680.00 633.00,680.00 633.00,680.00 633.00,680.00 642.72,615.00 642.72,615.00 642.72,615.00 647.00,583.00 647.00,583.00 Z M 402.00,706.00 C 402.00,706.00 402.00,647.00 402.00,647.00 409.78,647.00 420.83,645.64 426.89,651.22 434.47,658.20 432.02,676.21 432.00,686.00 432.00,688.57 432.08,691.50 431.47,694.00 430.62,697.50 428.77,700.33 425.96,702.58 420.04,707.32 409.36,706.00 402.00,706.00 Z M 235.00,871.00 C 235.00,871.00 218.00,871.00 218.00,871.00 216.56,880.34 211.87,889.68 204.00,895.20 191.92,903.68 171.88,901.32 162.33,889.99 150.70,876.20 152.97,850.15 153.00,833.00 153.02,819.59 156.47,803.89 168.00,795.64 172.29,792.57 178.76,790.58 184.00,790.18 201.50,788.86 215.39,802.34 218.00,819.00 218.00,819.00 235.00,819.00 235.00,819.00 233.41,807.73 229.22,795.34 220.83,787.24 203.99,771.16 167.89,770.45 151.17,787.24 133.95,804.40 135.74,836.43 136.00,859.00 136.21,876.34 141.18,895.26 155.00,906.67 171.92,920.64 206.89,917.92 221.91,901.99 230.11,893.28 232.86,882.38 235.00,871.00 Z M 258.00,777.00 C 258.00,777.00 258.00,914.00 258.00,914.00 258.00,914.00 341.00,914.00 341.00,914.00 341.00,914.00 341.00,899.00 341.00,899.00 341.00,899.00 275.00,899.00 275.00,899.00 275.00,899.00 275.00,850.00 275.00,850.00 275.00,850.00 335.00,850.00 335.00,850.00 335.00,850.00 335.00,835.00 335.00,835.00 335.00,835.00 275.00,835.00 275.00,835.00 275.00,835.00 275.00,792.00 275.00,792.00 275.00,792.00 341.00,792.00 341.00,792.00 341.00,792.00 341.00,777.00 341.00,777.00 341.00,777.00 258.00,777.00 258.00,777.00 Z M 366.00,777.00 C 366.00,777.00 366.00,914.00 366.00,914.00 366.00,914.00 383.00,914.00 383.00,914.00 383.00,914.00 383.00,811.00 383.00,811.00 383.00,811.00 398.85,838.00 398.85,838.00 398.85,838.00 425.15,884.00 425.15,884.00 425.15,884.00 437.15,905.00 437.15,905.00 437.15,905.00 443.38,913.43 443.38,913.43 443.38,913.43 459.00,914.00 459.00,914.00 459.00,914.00 459.00,777.00 459.00,777.00 459.00,777.00 442.00,777.00 442.00,777.00 442.00,777.00 442.00,881.00 442.00,881.00 442.00,881.00 397.15,802.00 397.15,802.00 397.15,802.00 387.42,785.00 387.42,785.00 387.42,785.00 382.47,777.99 382.47,777.99 382.47,777.99 375.00,777.00 375.00,777.00 375.00,777.00 366.00,777.00 366.00,777.00 Z M 478.00,777.00 C 478.00,777.00 478.00,792.00 478.00,792.00 478.00,792.00 519.00,792.00 519.00,792.00 519.00,792.00 519.00,914.00 519.00,914.00 519.00,914.00 536.00,914.00 536.00,914.00 536.00,914.00 536.00,792.00 536.00,792.00 536.00,792.00 578.00,792.00 578.00,792.00 578.00,792.00 578.00,777.00 578.00,777.00 578.00,777.00 478.00,777.00 478.00,777.00 Z M 596.00,777.00 C 596.00,777.00 596.00,914.00 596.00,914.00 596.00,914.00 679.00,914.00 679.00,914.00 679.00,914.00 679.00,899.00 679.00,899.00 679.00,899.00 613.00,899.00 613.00,899.00 613.00,899.00 613.00,850.00 613.00,850.00 613.00,850.00 673.00,850.00 673.00,850.00 673.00,850.00 673.00,835.00 673.00,835.00 673.00,835.00 613.00,835.00 613.00,835.00 613.00,835.00 613.00,792.00 613.00,792.00 613.00,792.00 679.00,792.00 679.00,792.00 679.00,792.00 679.00,777.00 679.00,777.00 679.00,777.00 596.00,777.00 596.00,777.00 Z M 704.00,777.00 C 704.00,777.00 704.00,914.00 704.00,914.00 704.00,914.00 721.00,914.00 721.00,914.00 721.00,914.00 721.00,856.00 721.00,856.00 721.00,856.00 745.00,856.00 745.00,856.00 747.81,856.01 751.30,855.69 753.59,857.60 755.43,859.14 758.91,867.32 760.25,870.00 760.25,870.00 775.25,900.00 775.25,900.00 782.24,913.98 780.82,913.98 790.00,914.00 790.00,914.00 801.00,914.00 801.00,914.00 801.00,914.00 789.25,889.00 789.25,889.00 789.25,889.00 771.00,853.00 771.00,853.00 778.77,850.90 785.43,847.46 790.47,841.00 802.91,825.05 800.12,796.51 783.00,784.91 771.03,776.81 757.73,777.00 744.00,777.00 744.00,777.00 704.00,777.00 704.00,777.00 Z M 721.00,841.00 C 721.00,841.00 721.00,792.00 721.00,792.00 734.10,792.00 760.27,790.10 771.00,796.36 783.99,803.94 785.00,827.68 771.99,835.79 760.70,842.81 734.63,841.00 721.00,841.00 Z" style="fill:#000000;fill-opacity:1" stroke-width="1" stroke="black" fill="none"></path></svg> 